<svg xmlns="http://www.w3.org/2000/svg" width="202" height="45" viewBox="0 0 202 45" fill="none"><path d="M0.0307711 30.1404L0 24.5115C1.00015 28.4408 4.50838 31.1851 8.52437 31.1851H24.4191C26.2501 31.1851 27.7427 32.6975 27.7427 34.5531V45H14.7561C14.0944 45 13.4636 44.735 13.002 44.2672L0.769347 31.9335C0.307739 31.4501 0.046158 30.7953 0.0307711 30.1404Z" fill="white"></path><path d="M8.46306 31.1695H13.6638L13.6485 20.4262C13.6485 18.5707 12.1559 17.0582 10.3249 17.0582H0.015625V24.527C1.03116 28.4408 4.57016 31.1695 8.46306 31.1695Z" fill="#00A8CC"></path><path d="M42.4219 14.8597L42.4526 20.4886C41.4525 16.5593 37.9443 13.815 33.9283 13.815H18.0335C16.2025 13.815 14.71 12.3025 14.71 10.447V0H27.6965C28.3582 0 28.989 0.265075 29.4507 0.73285L41.6833 13.0665C42.1449 13.5499 42.4065 14.1892 42.4219 14.8597Z" fill="white"></path><path d="M33.9899 13.8149H28.7891L28.8044 24.5582C28.8044 26.4137 30.297 27.9262 32.128 27.9262H42.4373V20.4574C41.4218 16.5436 37.8827 13.8149 33.9899 13.8149Z" fill="#00A8CC"></path><path d="M79.5507 39.605H75.1347L69.9493 30.5613H65.1793V39.605H61.1479V14.7505H70.9494C73.1498 14.7505 74.9962 15.5301 76.5195 17.0894C78.0582 18.6018 78.8276 20.4885 78.8276 22.7339C78.8276 24.3243 78.3813 25.7744 77.4735 27.0842C76.5811 28.3939 75.3963 29.3451 73.9499 29.9376L79.5507 39.605ZM70.9648 18.5862H65.1793V26.8971H70.9648C72.0419 26.8971 72.9497 26.4917 73.7037 25.6964C74.4577 24.8856 74.827 23.9033 74.827 22.7495C74.827 21.5956 74.4577 20.6133 73.7037 19.8025C72.9497 18.9917 72.0419 18.5862 70.9648 18.5862Z" fill="white"></path><path d="M97.3381 32.3544H83.3976C83.6745 33.6798 84.3208 34.7089 85.3055 35.4417C86.2903 36.1746 87.5366 36.5488 88.9984 36.5488C90.9833 36.5488 92.4912 35.816 93.5222 34.3503L96.6457 36.1902C94.9378 38.7629 92.3835 40.0571 88.983 40.0571C86.1518 40.0571 83.8592 39.1839 82.0897 37.4376C80.3355 35.66 79.4585 33.4303 79.4585 30.7328C79.4585 28.1133 80.3202 25.8991 82.0435 24.0904C83.7515 22.2972 85.9672 21.3929 88.6907 21.3929C91.2295 21.3929 93.3375 22.2972 94.9993 24.1216C96.6611 25.9459 97.492 28.16 97.492 30.764C97.4766 31.2318 97.4305 31.7619 97.3381 32.3544ZM83.3668 29.2359H93.6607C93.3991 27.8326 92.8298 26.7567 91.9219 26.0083C91.0295 25.2442 89.937 24.87 88.6445 24.87C87.2443 24.87 86.0749 25.2598 85.1363 26.0395C84.2131 26.8191 83.6284 27.8794 83.3668 29.2359Z" fill="white"></path><path d="M108.971 21.3929C111.002 21.3929 112.633 22.0478 113.864 23.3575C115.095 24.6673 115.695 26.4449 115.695 28.7058V39.6049H111.91V29.0956C111.91 27.7702 111.556 26.7567 110.863 26.0395C110.155 25.3222 109.201 24.9792 107.986 24.9792C106.601 24.9792 105.524 25.4158 104.724 26.2733C103.924 27.1309 103.539 28.4095 103.539 30.0935V39.6049H99.7539V21.8607H103.539V24.1372C104.708 22.2972 106.524 21.3929 108.971 21.3929Z" fill="white"></path><path d="M128.481 21.8607V25.5561H124.142V34.0696C124.142 34.8025 124.311 35.3326 124.635 35.6445C124.958 35.9563 125.45 36.1434 126.081 36.1746C126.727 36.2058 127.527 36.2058 128.481 36.159V39.605C125.589 39.9636 123.511 39.6985 122.25 38.8409C120.988 37.9833 120.357 36.3929 120.357 34.0696V25.5561H117.141V21.8607H120.357V18.0249L124.142 16.8867V21.8607H128.481Z" fill="white"></path><path d="M147.069 32.3544H133.128C133.405 33.6798 134.051 34.7089 135.036 35.4417C136.021 36.1746 137.267 36.5488 138.729 36.5488C140.714 36.5488 142.222 35.816 143.253 34.3503L146.376 36.1902C144.668 38.7629 142.114 40.0571 138.713 40.0571C135.882 40.0571 133.59 39.1839 131.82 37.4376C130.066 35.66 129.189 33.4303 129.189 30.7328C129.189 28.1133 130.051 25.8991 131.774 24.0904C133.482 22.2972 135.698 21.3929 138.421 21.3929C140.96 21.3929 143.068 22.2972 144.73 24.1216C146.392 25.9459 147.222 28.16 147.222 30.764C147.207 31.2318 147.161 31.7619 147.069 32.3544ZM133.097 29.2359H143.391C143.13 27.8326 142.56 26.7567 141.652 26.0083C140.76 25.2442 139.667 24.87 138.375 24.87C136.975 24.87 135.805 25.2598 134.867 26.0395C133.944 26.8191 133.359 27.8794 133.097 29.2359Z" fill="white"></path><path d="M163.256 24.3711V21.8451H167.041V39.605H163.256V37.0478C161.825 39.0592 159.794 40.0572 157.132 40.0572C154.731 40.0572 152.669 39.1528 150.961 37.3596C149.254 35.5665 148.407 33.3524 148.407 30.7172C148.407 28.0821 149.254 25.8836 150.961 24.0748C152.669 22.2817 154.716 21.3773 157.132 21.3773C159.794 21.3929 161.825 22.3908 163.256 24.3711ZM153.762 34.8025C154.808 35.8628 156.131 36.3929 157.716 36.3929C159.301 36.3929 160.624 35.8628 161.671 34.8025C162.717 33.711 163.24 32.3545 163.24 30.7172C163.24 29.08 162.717 27.7391 161.671 26.6788C160.624 25.5873 159.301 25.0416 157.716 25.0416C156.131 25.0416 154.808 25.5873 153.762 26.6788C152.716 27.7391 152.192 29.0956 152.192 30.7172C152.192 32.3389 152.716 33.6954 153.762 34.8025Z" fill="white"></path><path d="M173.688 26.7567C173.688 27.3024 173.965 27.739 174.534 28.0821C175.088 28.4251 175.919 28.7526 176.981 29.0644C177.796 29.2515 178.504 29.4542 179.12 29.6725C179.72 29.8908 180.366 30.2027 181.043 30.6081C181.72 31.0291 182.243 31.5592 182.597 32.2453C182.966 32.9157 183.12 33.711 183.105 34.5997C183.105 36.2993 182.459 37.6403 181.151 38.607C179.843 39.5738 178.227 40.0571 176.288 40.0571C174.565 40.0571 173.073 39.6829 171.842 38.9501C170.611 38.2172 169.703 37.2037 169.149 35.8939L172.396 33.9916C172.98 35.6912 174.273 36.5488 176.288 36.5488C178.273 36.5488 179.258 35.8939 179.258 34.5686C179.258 33.6018 178.15 32.8378 175.935 32.292C175.088 32.0738 174.38 31.8711 173.811 31.6528C173.242 31.4345 172.611 31.1382 171.919 30.7328C171.226 30.3274 170.703 29.7973 170.349 29.1424C169.98 28.4875 169.811 27.7078 169.841 26.8347C169.841 25.1975 170.441 23.8877 171.657 22.8898C172.888 21.8918 174.427 21.3929 176.242 21.3929C177.689 21.3929 178.981 21.7203 180.12 22.3752C181.258 23.0301 182.12 23.9345 182.736 25.0883L179.55 26.897C178.966 25.5561 177.873 24.87 176.258 24.87C175.504 24.87 174.904 25.0415 174.411 25.369C173.934 25.6964 173.688 26.1642 173.688 26.7567Z" fill="white"></path><path d="M201.846 32.3544H187.906C188.183 33.6798 188.829 34.7089 189.814 35.4417C190.799 36.1746 192.045 36.5488 193.507 36.5488C195.492 36.5488 197 35.816 198.03 34.3503L201.154 36.1902C199.446 38.7629 196.892 40.0571 193.491 40.0571C190.66 40.0571 188.367 39.1839 186.598 37.4376C184.844 35.66 183.967 33.4303 183.967 30.7328C183.967 28.1133 184.828 25.8991 186.552 24.0904C188.26 22.2972 190.475 21.3929 193.199 21.3929C195.738 21.3929 197.846 22.2972 199.508 24.1216C201.169 25.9459 202 28.16 202 30.764C201.985 31.2318 201.939 31.7619 201.846 32.3544ZM187.875 29.2359H198.169C197.907 27.8326 197.338 26.7567 196.43 26.0083C195.538 25.2442 194.445 24.87 193.153 24.87C191.753 24.87 190.583 25.2598 189.645 26.0395C188.721 26.8191 188.137 27.8794 187.875 29.2359Z" fill="white"></path></svg>