<svg xmlns="http://www.w3.org/2000/svg" width="125" height="51" viewBox="0 0 125 51" fill="none"><path d="M8.8822 15.8485C9.5622 6.69297 10.4253 1.0465 18.4583 1.0465C24.8853 1.0465 26.9251 6.13911 27.6031 15.4373C27.7092 16.8607 27.7919 18.2949 27.8512 19.7398H36.1412C34.5212 8.89379 28.2682 0.630859 18.1512 0.630859C7.75125 0.630859 1.95125 8.80464 0.40625 19.7398H8.65723C8.70989 18.4316 8.78487 17.1345 8.8822 15.8485ZM27.6031 35.6841C26.9261 44.843 26.0602 50.4905 18.0272 50.4905C11.6002 50.4905 9.56318 45.3934 8.88318 36.0997C8.87418 35.9415 8.86215 35.7832 8.85315 35.6217H1.19019C3.57619 44.5243 9.4482 50.9028 18.3352 50.9028C27.5242 50.9028 33.1262 44.5833 35.3942 35.6217H27.6093C27.6063 35.6361 27.6061 35.6595 27.6031 35.6796V35.6841Z" fill="#F8D210"></path><path d="M44.5356 19.7389H51.9506V1.87354H58.9307C66.9047 1.87354 67.8306 10.5477 68.1376 15.4375C68.2316 16.8672 68.3036 18.3047 68.3566 19.74H76.6436C74.9996 9.48012 68.9006 1.45898 58.8726 1.45898H40.5176V1.87354H44.5356V19.7389ZM58.9357 49.6571H51.9556V35.6163H44.5406V49.6571H40.5226V50.0728H58.8766C68.0356 50.0728 73.5676 44.1032 75.8616 35.6163H68.1426C67.7676 41.4677 67.4577 49.6571 58.9307 49.6571H58.9357Z" fill="#F8D210"></path><path d="M120.165 35.6159H112.75V49.6568H108.735V50.0724H124.183V49.6568H120.165V35.6159ZM113.244 1.45752L106.29 19.7385H106.781L112.626 4.34928H112.75V19.7385H120.165V1.87319H124.183V1.45864L113.244 1.45752ZM98.9698 38.8475H99.5258L100.753 35.6159H97.7528L98.9698 38.8475ZM92.6698 1.45752H81.2988V1.87207H85.5618V19.7385H85.9348V4.4195H86.0558L91.8038 19.7397H99.5818L92.6698 1.45752ZM85.9348 35.6159H85.5618V49.6568H81.2988V50.0724H91.3718V49.6568H85.9348V35.6159Z" fill="#F8D210"></path><path d="M9.78369 24.0504C10.0057 24.2636 10.1818 24.5298 10.299 24.8292C10.4161 25.1285 10.4714 25.4535 10.4607 25.7798C10.4717 26.1062 10.4158 26.4311 10.2972 26.7298C10.1787 27.0285 10.0008 27.2932 9.77673 27.5038C9.26993 27.9553 8.63294 28.1859 7.98474 28.1523H4.8927C4.8557 28.1523 4.83765 28.1701 4.83765 28.2036V32.3635C4.83765 32.4504 4.79166 32.4927 4.70166 32.4927H4.5647C4.4727 32.4927 4.42773 32.4493 4.42773 32.3635V23.5255C4.42773 23.4386 4.4727 23.3962 4.5647 23.3962H7.98474C8.63621 23.3601 9.2767 23.593 9.78369 24.0504ZM9.48364 27.2385C9.66977 27.06 9.81745 26.8371 9.91577 26.5863C10.0141 26.3356 10.0605 26.0633 10.0516 25.7898C10.0614 25.512 10.0155 25.2352 9.91724 24.9796C9.81899 24.7241 9.67085 24.4961 9.48364 24.3122C9.06364 23.9242 8.52854 23.7255 7.98364 23.755H4.89172C4.85472 23.755 4.83667 23.7729 4.83667 23.8063V27.7411C4.83667 27.7756 4.85472 27.7935 4.89172 27.7935H7.98364C8.52773 27.8216 9.06285 27.6239 9.48364 27.2385Z" fill="white"></path><path d="M24.8419 32.3903L24.2129 30.5628C24.2089 30.5504 24.2014 30.5398 24.1914 30.5327C24.1815 30.5257 24.1697 30.5225 24.158 30.5238H19.6719C19.6601 30.5225 19.6484 30.5257 19.6384 30.5327C19.6285 30.5398 19.6209 30.5504 19.617 30.5628L18.9879 32.3903C18.9738 32.4246 18.9505 32.4531 18.921 32.4717C18.8916 32.4903 18.8576 32.4981 18.824 32.4939H18.6869C18.5869 32.4939 18.5499 32.446 18.5769 32.3513L21.642 23.5256C21.6561 23.4913 21.6794 23.4629 21.7089 23.4443C21.7383 23.4256 21.7723 23.4178 21.8059 23.422H21.997C22.0306 23.418 22.0645 23.4259 22.0939 23.4445C22.1233 23.463 22.1467 23.4914 22.1609 23.5256L25.2389 32.3513L25.2529 32.4026C25.2529 32.4627 25.2119 32.4928 25.1299 32.4928H25.007C24.9733 32.4975 24.9391 32.49 24.9094 32.4716C24.8798 32.4532 24.8561 32.4247 24.8419 32.3903ZM19.7589 30.1549C19.7723 30.1676 19.7893 30.1744 19.8069 30.1739H24.007C24.0147 30.1746 24.0224 30.1733 24.0296 30.17C24.0367 30.1667 24.043 30.1615 24.048 30.1549C24.0524 30.1483 24.0548 30.1403 24.0548 30.1321C24.0548 30.1238 24.0524 30.1158 24.048 30.1092L21.9409 24.0315C21.9368 24.0234 21.9309 24.0166 21.9237 24.0119C21.9165 24.0072 21.9083 24.0048 21.8999 24.0048C21.8916 24.0048 21.8834 24.0072 21.8762 24.0119C21.869 24.0166 21.863 24.0234 21.8589 24.0315L19.752 30.1092C19.7497 30.1127 19.748 30.1167 19.7471 30.1209C19.7462 30.1251 19.7461 30.1295 19.7467 30.1337C19.7474 30.138 19.7488 30.1421 19.7509 30.1457C19.753 30.1493 19.7557 30.1525 19.7589 30.1549Z" fill="white"></path><path d="M39.9863 32.4023L37.7974 28.1511C37.7934 28.1387 37.7858 28.1281 37.7759 28.121C37.7659 28.114 37.7541 28.1108 37.7423 28.112H34.8284C34.7914 28.112 34.7733 28.1299 34.7733 28.1633V32.36C34.7733 32.4462 34.7277 32.4892 34.6364 32.4892H34.5004C34.409 32.4892 34.3633 32.4462 34.3633 32.36V23.5566C34.3633 23.4708 34.4094 23.4262 34.5004 23.4262H37.8113C38.4583 23.3917 39.0939 23.6247 39.5963 24.0803C39.8167 24.2895 39.9921 24.5512 40.1093 24.8462C40.2265 25.1412 40.2825 25.4617 40.2733 25.7842C40.2816 26.072 40.2373 26.3588 40.1431 26.6269C40.0489 26.8951 39.9068 27.1392 39.7253 27.3443C39.3246 27.7733 38.8016 28.0323 38.2473 28.0764C38.2023 28.0942 38.1883 28.1154 38.2063 28.141L40.3673 32.3399C40.377 32.3597 40.3819 32.382 40.3813 32.4046C40.3813 32.4647 40.3443 32.4948 40.2723 32.4948H40.1493C40.117 32.4989 40.0844 32.4923 40.0554 32.4759C40.0264 32.4594 40.0024 32.4338 39.9863 32.4023ZM34.7733 23.8363V27.7109C34.7733 27.7454 34.7914 27.7633 34.8284 27.7633H37.8113C38.35 27.7909 38.8788 27.5947 39.2953 27.2128C39.4743 27.03 39.6173 26.8077 39.7151 26.56C39.8129 26.3123 39.8634 26.0447 39.8634 25.7741C39.8634 25.5036 39.8129 25.2359 39.7151 24.9883C39.6173 24.7406 39.4743 24.5183 39.2953 24.3355C38.8788 23.9536 38.35 23.7574 37.8113 23.785H34.8284C34.7914 23.7794 34.7733 23.8017 34.7733 23.8363Z" fill="white"></path><path d="M55.1453 23.5565V23.6601C55.1453 23.747 55.0993 23.7894 55.0083 23.7894H52.2173C52.1813 23.7894 52.1633 23.8061 52.1633 23.8406V32.3599C52.1633 32.4457 52.1172 32.4892 52.0262 32.4892H51.8893C51.7979 32.4892 51.7523 32.4461 51.7523 32.3599V23.8328C51.7523 23.7983 51.7343 23.7816 51.6973 23.7816H49.0433C48.9523 23.7816 48.9062 23.7381 48.9062 23.6523V23.5565C48.9062 23.4707 48.9513 23.4261 49.0433 23.4261H55.0083C55.0993 23.4216 55.1453 23.4651 55.1453 23.5565Z" fill="white"></path><path d="M70.3868 23.4219H70.5239C70.6149 23.4219 70.6609 23.4653 70.6609 23.5523V32.3601C70.6609 32.4459 70.6149 32.4894 70.5239 32.4894H70.3739C70.3422 32.4893 70.3109 32.4812 70.2825 32.4656C70.254 32.4499 70.2293 32.4272 70.21 32.3991L64.9009 24.2476C64.8919 24.222 64.8779 24.2108 64.8599 24.2153C64.8419 24.2197 64.8329 24.2342 64.8329 24.2599V32.3601C64.8329 32.4463 64.7873 32.4894 64.6959 32.4894H64.559C64.468 32.4894 64.4219 32.4459 64.4219 32.3601V23.5567C64.4219 23.4709 64.467 23.4263 64.559 23.4263H64.7229C64.7547 23.4266 64.786 23.4349 64.8145 23.4508C64.8429 23.4666 64.8676 23.4895 64.8868 23.5177L70.1959 31.6692C70.2049 31.6949 70.2179 31.706 70.2369 31.7015C70.2559 31.6971 70.2639 31.6826 70.2639 31.6558L70.2499 23.5556C70.2499 23.4653 70.2958 23.4219 70.3868 23.4219Z" fill="white"></path><path d="M86.3406 23.7795H80.9905C80.9535 23.7795 80.9355 23.7962 80.9355 23.8308V27.7054C80.9355 27.7399 80.9535 27.7578 80.9905 27.7578H84.8485C84.9398 27.7578 84.9852 27.8009 84.9845 27.887V27.9907C84.9845 28.0768 84.9392 28.1199 84.8485 28.1199H80.9905C80.9535 28.1199 80.9355 28.1378 80.9355 28.1723V32.0726C80.9355 32.1071 80.9535 32.1238 80.9905 32.1238H86.3406C86.4316 32.1238 86.4775 32.1673 86.4775 32.2531V32.3567C86.4775 32.4425 86.4316 32.486 86.3406 32.486H80.6586C80.5676 32.486 80.5215 32.4425 80.5215 32.3567V23.5567C80.5215 23.4708 80.5676 23.4263 80.6586 23.4263H86.3365C86.4275 23.4263 86.4735 23.4697 86.4735 23.5567V23.6603C86.4775 23.7416 86.4316 23.7795 86.3406 23.7795Z" fill="white"></path><path d="M101.623 32.4023L99.4341 28.1511C99.4302 28.1389 99.4227 28.1284 99.413 28.1214C99.4032 28.1143 99.3916 28.1111 99.38 28.1121H96.4651C96.4281 28.1121 96.411 28.1299 96.411 28.1633V32.36C96.411 32.4458 96.365 32.4893 96.274 32.4893H96.1371C96.0458 32.4893 96 32.4462 96 32.36V23.5566C96 23.4708 96.0461 23.4262 96.1371 23.4262H99.448C100.095 23.3917 100.731 23.6246 101.233 24.0803C101.435 24.2846 101.598 24.5313 101.714 24.8063C101.83 25.0813 101.896 25.3792 101.908 25.6827C101.92 25.9862 101.878 26.2894 101.785 26.5748C101.691 26.8601 101.548 27.122 101.363 27.3454C100.962 27.7742 100.439 28.0332 99.885 28.0775C99.839 28.0953 99.826 28.1165 99.844 28.1422L102.006 32.3411C102.016 32.3609 102.021 32.3831 102.02 32.4057C102.02 32.4659 101.983 32.4959 101.911 32.4959H101.788C101.755 32.5004 101.722 32.4938 101.693 32.4772C101.663 32.4605 101.639 32.4344 101.623 32.4023ZM96.41 23.8363V27.7109C96.41 27.7455 96.428 27.7633 96.464 27.7633H99.447C99.9861 27.791 100.515 27.5949 100.932 27.2128C101.111 27.03 101.254 26.8077 101.352 26.56C101.45 26.3124 101.5 26.0447 101.5 25.7742C101.5 25.5036 101.45 25.2359 101.352 24.9883C101.254 24.7406 101.111 24.5183 100.932 24.3355C100.515 23.9534 99.9861 23.7573 99.447 23.785H96.464C96.428 23.7795 96.41 23.8017 96.41 23.8363Z" fill="white"></path><path d="M111.529 31.9812C111.268 31.8144 111.053 31.5734 110.903 31.283C110.754 30.9926 110.677 30.6632 110.68 30.3286V29.875C110.68 29.7892 110.726 29.7458 110.817 29.7458H110.926C111.017 29.7458 111.063 29.7892 111.063 29.875V30.3019C111.062 30.5902 111.132 30.8732 111.265 31.1209C111.398 31.3685 111.588 31.5715 111.816 31.7082C112.447 32.0935 113.163 32.2752 113.882 32.2331C114.548 32.2786 115.211 32.1074 115.791 31.7405C115.999 31.5986 116.17 31.3981 116.286 31.1593C116.403 30.9205 116.461 30.6516 116.455 30.3798C116.461 30.0471 116.364 29.722 116.181 29.4594C115.94 29.1493 115.644 28.8978 115.312 28.7206C114.769 28.4174 114.209 28.1532 113.636 27.9294C112.915 27.6322 112.379 27.3904 112.028 27.204C111.709 27.0417 111.426 26.8027 111.2 26.5041C110.991 26.1998 110.885 25.8236 110.9 25.441C110.886 25.1299 110.946 24.8201 111.073 24.5427C111.2 24.2652 111.39 24.0298 111.625 23.8598C112.255 23.4552 112.979 23.2661 113.705 23.316C114.498 23.2632 115.287 23.4775 115.969 23.9311C116.219 24.1087 116.425 24.3553 116.565 24.6471C116.705 24.9389 116.775 25.2661 116.769 25.597V25.9079C116.769 25.9937 116.723 26.0372 116.632 26.0372H116.495C116.403 26.0372 116.358 25.9941 116.358 25.9079V25.6227C116.361 25.3399 116.298 25.0611 116.175 24.8136C116.053 24.5661 115.874 24.3583 115.658 24.2108C115.056 23.8184 114.363 23.6334 113.667 23.6792C113.055 23.6394 112.445 23.794 111.909 24.125C111.713 24.2614 111.554 24.4533 111.447 24.681C111.34 24.9088 111.289 25.1642 111.3 25.421C111.288 25.7527 111.385 26.0778 111.574 26.3347C111.787 26.5971 112.048 26.8051 112.34 26.9443C112.668 27.113 113.188 27.3358 113.9 27.6129C114.703 27.8964 115.466 28.3066 116.165 28.8309C116.384 29.0031 116.563 29.2323 116.685 29.4987C116.807 29.7652 116.868 30.0608 116.865 30.3598C116.87 30.6843 116.8 31.0048 116.663 31.2906C116.525 31.5765 116.323 31.8181 116.078 31.9923C115.409 32.4413 114.634 32.6538 113.855 32.6019C113.042 32.6487 112.234 32.4331 111.529 31.9812Z" fill="white"></path></svg>